<?xml version="1.0" standalone="no"?>
<!DOCTYPE svg PUBLIC "-//W3C//DTD SVG 20010904//EN"
 "http://www.w3.org/TR/2001/REC-SVG-20010904/DTD/svg10.dtd">
<svg version="1.0" xmlns="http://www.w3.org/2000/svg"
 width="1000.000000pt" height="1000.000000pt" viewBox="0 0 1000.000000 1000.000000"
 preserveAspectRatio="xMidYMid meet">
<metadata>
Created by potrace 1.11, written by Peter Selinger 2001-2013
</metadata>
<g transform="translate(0.000000,1000.000000) scale(0.100000,-0.100000)"
fill="#000000" stroke="none">
<path d="M4819 9980 c-96 -20 -233 -80 -312 -136 -67 -48 -4240 -4215 -4320
-4314 -249 -308 -247 -752 4 -1065 l64 -80 7 125 c4 75 15 159 28 210 85 333
350 601 685 692 66 17 107 21 235 21 145 0 174 -3 445 -54 l290 -54 -2 -50
c-8 -218 -5 -507 6 -605 42 -378 141 -716 307 -1049 245 -492 599 -893 1054
-1193 58 -39 106 -73 108 -77 1 -4 -113 -143 -254 -310 l-257 -303 744 -745
c409 -410 778 -772 819 -806 290 -234 721 -247 1023 -30 29 20 186 169 349
331 l297 295 69 -26 c87 -32 217 -52 290 -43 154 18 2256 369 2312 386 217 66
400 259 456 483 35 140 31 178 -130 1150 l-149 898 410 412 c225 227 426 435
447 464 216 303 203 733 -31 1023 -34 41 -328 342 -655 668 l-594 593 33 97
c82 232 116 446 117 712 0 349 -68 644 -219 955 -308 636 -909 1082 -1615
1200 -132 23 -420 31 -561 16 -153 -16 -328 -54 -473 -102 l-119 -40 -86 84
c-114 110 -179 158 -285 208 -162 76 -357 97 -537 59z m361 -2210 c432 -31
844 -150 1206 -351 106 -59 167 -107 189 -150 35 -67 3 -182 -63 -226 -50 -33
-100 -38 -163 -15 -30 11 -105 38 -167 61 -203 74 -387 112 -627 132 -401 32
-867 -67 -1096 -233 -55 -39 -123 -98 -118 -102 2 -1 45 -29 94 -61 243 -160
352 -355 324 -580 -38 -299 -268 -514 -569 -532 -281 -16 -489 142 -584 445
-14 45 -29 107 -32 137 -4 35 -12 55 -20 55 -27 0 -116 -135 -200 -302 -277
-552 -250 -1228 70 -1772 31 -52 60 -114 65 -138 19 -84 -17 -161 -92 -197
-55 -27 -99 -27 -154 0 -53 26 -93 72 -188 214 -184 277 -301 571 -360 908
-28 157 -47 209 -99 260 -68 69 -107 82 -233 82 -61 0 -114 3 -117 6 -9 9 31
206 70 343 55 193 112 339 198 511 139 274 287 478 510 701 318 317 655 525
1076 664 359 119 717 165 1080 140z m1680 -695 c396 -350 704 -855 840 -1382
214 -824 41 -1683 -479 -2381 -114 -152 -361 -404 -506 -513 -213 -162 -425
-286 -503 -296 -117 -13 -222 97 -193 204 15 56 47 94 136 164 105 83 284 263
367 369 180 233 308 488 377 755 41 155 71 393 71 563 l0 72 -90 -45 c-136
-69 -228 -96 -345 -102 -78 -4 -114 -2 -160 12 -233 67 -401 282 -421 539 -18
217 122 462 318 562 148 75 359 68 573 -20 33 -13 61 -21 63 -17 4 12 -46 148
-78 212 -80 158 -256 370 -418 503 -237 193 -572 354 -868 417 -73 16 -155 23
-314 28 -228 7 -250 12 -297 63 -58 62 -58 174 0 236 49 53 100 66 325 82 307
23 609 -22 944 -141 171 -60 240 -66 326 -29 67 29 134 102 162 178 23 60 36
75 56 64 7 -4 58 -47 114 -97z m-4370 -1805 c45 -32 67 -88 86 -216 76 -514
357 -1020 736 -1325 142 -113 349 -249 383 -249 3 0 5 28 5 63 0 139 44 319
103 419 116 199 388 299 627 232 178 -51 347 -202 409 -369 62 -164 43 -347
-51 -502 -43 -71 -148 -176 -222 -221 l-60 -37 50 -12 c63 -14 334 -16 444 -3
228 29 401 79 596 174 346 170 613 418 810 752 72 122 104 159 159 180 123 46
223 -47 213 -200 -5 -79 -55 -186 -182 -383 -182 -286 -311 -434 -572 -659
-33 -28 -72 -75 -89 -105 -26 -47 -30 -64 -30 -134 0 -88 17 -133 75 -199 46
-51 40 -71 -26 -95 -156 -59 -398 -118 -599 -148 -167 -24 -553 -24 -720 0
-941 138 -1701 682 -2119 1517 -201 403 -306 833 -306 1256 0 150 16 212 65
251 44 36 68 43 131 39 34 -1 62 -10 84 -26z"/>
</g>
</svg>
