<?xml version="1.0" standalone="no"?>
<!DOCTYPE svg PUBLIC "-//W3C//DTD SVG 20010904//EN"
 "http://www.w3.org/TR/2001/REC-SVG-20010904/DTD/svg10.dtd">
<svg version="1.0" xmlns="http://www.w3.org/2000/svg"
 width="260.000000pt" height="260.000000pt" viewBox="0 0 260.000000 260.000000"
 preserveAspectRatio="xMidYMid meet">
<metadata>
Created by potrace 1.11, written by Peter Selinger 2001-2013
</metadata>
<g transform="translate(0.000000,260.000000) scale(0.100000,-0.100000)"
fill="#000000" stroke="none">
<path d="M1166 2584 c-90 -20 -176 -60 -251 -117 -100 -76 -785 -774 -823
-838 -119 -204 -119 -454 0 -658 46 -78 801 -833 879 -879 74 -43 156 -71 250
-85 132 -19 284 13 408 85 78 46 833 801 879 879 119 204 119 454 0 658 -38
64 -723 762 -823 838 -149 114 -337 156 -519 117z m299 -494 c95 -24 206 -74
235 -105 25 -26 20 -59 -10 -75 -14 -8 -39 -3 -97 16 -148 51 -343 41 -450
-22 -24 -14 -43 -28 -43 -32 0 -4 18 -19 39 -34 121 -86 78 -266 -71 -293 -78
-15 -148 35 -178 126 l-17 53 -27 -47 c-93 -159 -99 -342 -16 -507 42 -83 37
-120 -16 -120 -51 0 -142 155 -170 290 -17 86 -37 111 -92 119 l-40 6 19 75
c69 269 278 479 549 549 105 28 279 28 385 1z m427 -267 c150 -159 220 -329
221 -543 1 -173 -42 -306 -149 -456 -73 -104 -236 -234 -292 -234 -25 0 -53
36 -45 57 3 9 41 50 83 92 57 56 87 95 114 151 37 76 66 185 66 252 l0 36 -40
-19 c-51 -25 -126 -25 -167 1 -69 42 -95 155 -50 221 47 70 118 95 196 68 18
-6 34 -9 37 -6 10 10 -45 103 -86 145 -95 99 -216 154 -368 167 -67 6 -84 11
-93 26 -14 27 -2 58 28 70 44 16 185 10 269 -12 43 -12 89 -23 101 -26 38 -9
72 6 88 37 9 17 19 30 24 30 4 0 33 -26 63 -57z m-1324 -495 c6 -7 13 -31 17
-53 22 -128 73 -231 159 -322 35 -38 82 -78 104 -91 l41 -23 6 38 c11 70 41
121 84 143 54 27 105 26 158 -5 105 -62 109 -209 7 -275 l-29 -20 30 -2 c209
-11 370 67 480 232 52 79 79 94 107 60 25 -31 23 -48 -18 -116 -54 -89 -108
-158 -158 -198 -53 -44 -63 -74 -40 -122 9 -19 15 -37 13 -39 -3 -2 -42 -13
-88 -25 -72 -19 -104 -22 -215 -18 -114 4 -142 8 -219 35 -124 44 -189 85
-292 188 -73 73 -100 108 -138 182 -53 103 -81 200 -92 315 -6 64 -4 82 9 103
18 27 56 34 74 13z"/>
</g>
</svg>
