<svg xmlns="http://www.w3.org/2000/svg" width="210" height="42"><defs><style>.cls-1{fill:none}.cls-2{fill:#ffc629}.cls-4{fill:#ce0e2d}.cls-6{fill:#d83d40}.cls-9{fill:#fff}</style><clipPath id="clip-path"><path class="cls-1" d="M132.47.56h11.12v26.16h-11.12z"/></clipPath><clipPath id="clip-path-2"><path class="cls-1" d="M159.3.56h11.12v26.16H159.3z"/></clipPath><clipPath id="clip-path-3"><path class="cls-1" d="M187.75.56h11.12v26.16h-11.12z"/></clipPath></defs><path class="cls-2" d="M27.75 26.67h2.82-2.82zM33.56 23.68v-2.82h-.06v2.82zM33.56 18.68v-2.44h-.06v2.44zM23.13 26.67h2.44-2.44zM33.56 13.68v-2.07h-.06v2.07zM18.5 26.67h2.07-2.07zM13.88 26.67h1.69-1.69zM33.56 8.68V7h-.06v1.68zM9.25 26.67h1.31-1.31zM33.56 3.68V2.37h-.06v1.31zM4.63 26.67h.92-.92zM0 26.67h.56H0zM27.75 26.64h2.83a3 3 0 0 1 2.92-2.94v-2.83a5.82 5.82 0 0 0-5.75 5.77z"/><path class="cls-2" d="M23.13 26.64h2.44a8 8 0 0 1 7.93-8v-2.4a10.46 10.46 0 0 0-10.37 10.4z"/><path class="cls-2" d="M18.5 26.64h2.07a13 13 0 0 1 12.93-13v-2.03a15.09 15.09 0 0 0-15 15.03z"/><path class="cls-2" d="M13.88 26.64h1.69a18 18 0 0 1 17.93-18V7a19.71 19.71 0 0 0-19.62 19.64z"/><path class="cls-2" d="M9.25 26.64h1.31a23 23 0 0 1 22.93-23V2.37A24.35 24.35 0 0 0 9.25 26.64z"/><path class="cls-2" d="M4.63 26.64h.94A28 28 0 0 1 22.6.91h-2.19A29 29 0 0 0 4.63 26.64z"/><path class="cls-2" d="M13 .91h-.88A33.54 33.54 0 0 0 0 26.64h.56A33 33 0 0 1 13 .91z"/><path id="UFCW" d="M52.71 15.23c0 3.12-.36 7.09-3.51 9.47-3.59 2.61-11.69 2.83-16 .39-4.52-2.51-4.31-8.64-4.31-9.8V4.44L25.9.56h12.19l-3 3.88v10.79c0 .93-.18 4.37 2.26 6.34a5.47 5.47 0 0 0 7.18-.07c2-1.58 1.94-5.05 1.94-6.21V2.65a2.07 2.07 0 0 1 1.75-2A11.33 11.33 0 0 1 51 .64a2.16 2.16 0 0 1 1.75 2.08v12.51zM93.2 23c.93 0 .65 2.19-.18 2.55-2.58 1.11-8.64 1.43-11.36.61-5.13-1.53-9.82-5-10.66-11.08a5.7 5.7 0 0 1-1.17.18c-.82 0-3 .1-4.37.18-1.54.07-4.07.79-4.07 3.28v5.39a2.09 2.09 0 0 1-2 2.15h-7.58l3-3.76V3.41A2.64 2.64 0 0 1 57.47.58h12.55c1.14 0 2 .29 2.22.93a1.61 1.61 0 0 1 0 1.31c-.18.43-1.12.68-2 .75-1.08.08-2.37.18-3.88.22-2.43.07-4.94.54-4.94 3.94C61.39 11.46 65.11 12 66 12c1 0 2.65.11 3.87.18a5.33 5.33 0 0 1 1 .16c.29-6.25 4.17-9.69 8.49-11.49C82-.22 89.62-.51 92.45 1.35a4.54 4.54 0 0 1 .48.39A1.37 1.37 0 0 1 94.39.49a11.28 11.28 0 0 1 3 .18c1 .22 1.76 1.83 1.9 3.19a104.37 104.37 0 0 0 1.93 10.51c.94 3.44 2.34 3 3.56-1.69.68-2.61 1.3-6.41 1.83-9.25.39-2.15 1.18-3.15 2.76-3.15h4.37c1.51 0 2.29.65 2.73 3.08s1.18 6.78 1.93 9.75c1.22 4.84 2.58 4.37 3.39 1.08.68-2.69 1.8-8 2.19-10.46.22-1.37.72-2.84 1.76-3a11.28 11.28 0 0 1 3-.18c2.19 0 1.55 2.69 1 5.09s-3.12 12.61-3.88 16.05c-.65 3-.93 4.58-3.72 4.63h-3.8c-2.47-.07-2.61-2.58-3.23-5.41-.39-1.87-1.18-6.1-1.72-8.28-.79-3.19-2.61-3.16-3.47.07-.55 2-1.54 6-1.9 8.21-.47 3-1 5.34-3.34 5.41h-3.66c-2.57-.07-3.11-2-3.91-4.9-.66-2.5-3-13.18-3.73-15.77A16.47 16.47 0 0 1 93 3.78a1 1 0 0 1-.35 0c-7.82-1.22-10.98 0-13.91 4.22-2.12 3-1.23 8.25-.26 9.86 3.55 6 9 5.45 14.7 5.23z" fill="#004990"/><path class="cls-4" d="M143.24 26.79c7.22 0 11.47-3.67 11.47-9.35a8.18 8.18 0 0 0-8.3-8.44 7.85 7.85 0 0 0-5.41 2V7.36h11.89V.56h-19.65v15.65l5.37 1.25a6.49 6.49 0 0 1 4.78-1.78c2.4 0 3.4 1 3.4 2.12s-1 2.13-3.63 2.13a10.67 10.67 0 0 1-6.53-2.24l-4.16 5.47c2.51 2.28 6.17 3.63 10.77 3.63M170.88 26.79c7.22 0 11.47-3.67 11.47-9.35a8.18 8.18 0 0 0-8.3-8.44 7.89 7.89 0 0 0-5.37 2V7.36h11.89V.56h-19.69v15.65l5.37 1.25a6.49 6.49 0 0 1 4.75-1.78c2.39 0 3.4 1 3.4 2.12s-1.05 2.13-3.63 2.13a10.62 10.62 0 0 1-6.53-2.24l-4.17 5.47c2.51 2.28 6.18 3.63 10.78 3.63M198.53 26.79c7.22 0 11.47-3.67 11.47-9.35A8.19 8.19 0 0 0 201.7 9a7.85 7.85 0 0 0-5.37 2V7.36h11.89V.56h-19.7v15.65l5.37 1.25a6.51 6.51 0 0 1 4.79-1.78c2.39 0 3.4 1 3.4 2.12s-1 2.13-3.63 2.13a10.62 10.62 0 0 1-6.53-2.24l-4.17 5.47c2.51 2.28 6.18 3.63 10.78 3.63"/><g clip-path="url(#clip-path)"><path class="cls-6" d="M143.24 26.79c7.22 0 11.47-3.67 11.47-9.35a8.18 8.18 0 0 0-8.3-8.44 7.85 7.85 0 0 0-5.41 2V7.36h11.9V.56h-19.7v15.65l5.37 1.25a6.49 6.49 0 0 1 4.78-1.78c2.4 0 3.4 1 3.4 2.12s-1 2.13-3.63 2.13a10.67 10.67 0 0 1-6.53-2.24l-4.16 5.47c2.51 2.28 6.17 3.63 10.77 3.63"/></g><g clip-path="url(#clip-path-2)"><path class="cls-6" d="M170.88 26.79c7.22 0 11.47-3.67 11.47-9.35a8.18 8.18 0 0 0-8.3-8.44 7.89 7.89 0 0 0-5.37 2V7.36h11.89V.56h-19.69v15.65l5.37 1.25a6.49 6.49 0 0 1 4.75-1.78c2.39 0 3.4 1 3.4 2.12s-1.05 2.13-3.63 2.13a10.62 10.62 0 0 1-6.53-2.24l-4.17 5.47c2.51 2.28 6.18 3.63 10.78 3.63"/></g><g clip-path="url(#clip-path-3)"><path class="cls-6" d="M198.53 26.79c7.22 0 11.47-3.67 11.47-9.35A8.19 8.19 0 0 0 201.7 9a7.85 7.85 0 0 0-5.37 2V7.36h11.89V.56h-19.7v15.65l5.37 1.25a6.51 6.51 0 0 1 4.79-1.78c2.39 0 3.4 1 3.4 2.12s-1 2.13-3.63 2.13a10.62 10.62 0 0 1-6.53-2.24l-4.17 5.47c2.51 2.28 6.18 3.63 10.78 3.63"/></g><path class="cls-9" d="M135.63 2.24h.83v2.7h1.11v.73h-1.94zM139.6 2.18c.93 0 1.5.74 1.5 1.78s-.57 1.77-1.5 1.77S138.12 5 138.12 4s.56-1.82 1.48-1.82zm0 .74c-.41 0-.65.44-.65 1s.23 1 .65 1 .65-.45.65-1-.25-1-.65-1zM141.76 4c0-1 .58-1.78 1.49-1.78a1.27 1.27 0 0 1 1.24.91l-.69.29a.58.58 0 0 0-.55-.45c-.4 0-.65.43-.65 1s.24 1 .65 1a.6.6 0 0 0 .55-.49l.69.29a1.28 1.28 0 0 1-1.24.94A1.57 1.57 0 0 1 141.76 4zM146.94 5.14h-1.06l-.12.53h-.86l1-3.43h1l1 3.43h-.86zm-.89-.72h.73L146.42 3zM148.57 2.24h.83v2.7h1.11v.73h-1.94z"/><path class="cls-4" d="M1.07 38.78v-.6l.77-.76c1.87-1.77 2.72-2.72 2.73-3.82a1.31 1.31 0 0 0-1.45-1.43 2.55 2.55 0 0 0-1.56.63l-.32-.69a3.13 3.13 0 0 1 2.07-.74 2 2 0 0 1 2.23 2.12c0 1.35-1 2.44-2.51 3.92l-.59.59h3.3v.82zM11.2 32.31H8.41l-.28 1.88a4 4 0 0 1 .6 0 3.24 3.24 0 0 1 1.58.39 2.12 2.12 0 0 1 1 1.88 2.54 2.54 0 0 1-2.72 2.5 3.59 3.59 0 0 1-1.82-.45l.24-.76a3.43 3.43 0 0 0 1.57.41 1.62 1.62 0 0 0 1.73-1.59c0-1-.66-1.63-2.11-1.63a7 7 0 0 0-1 .08l.48-3.49h3.52zM12.28 40.17a15.59 15.59 0 0 0 .72-2.69l1.1-.11A14.19 14.19 0 0 1 13 40.1zM19.8 35.05c0 2.49-.93 3.86-2.55 3.86-1.42 0-2.39-1.34-2.41-3.76s1.06-3.8 2.54-3.8 2.42 1.37 2.42 3.7zm-4 .11c0 1.9.58 3 1.48 3s1.49-1.18 1.49-3-.46-3-1.48-3c-.83-.04-1.46 1.01-1.46 3zM25.57 35.05c0 2.49-.93 3.86-2.55 3.86-1.42 0-2.39-1.34-2.41-3.76s1.06-3.8 2.54-3.8 2.42 1.37 2.42 3.7zm-4 .11c0 1.9.58 3 1.48 3s1.49-1.18 1.49-3-.46-3-1.48-3c-.83-.04-1.46 1.01-1.46 3zM31.35 35.05c0 2.49-.92 3.86-2.54 3.86-1.43 0-2.4-1.34-2.42-3.76s1-3.8 2.53-3.8 2.43 1.37 2.43 3.7zm-4 .11c0 1.9.58 3 1.48 3s1.5-1.18 1.5-3-.46-3-1.49-3c-.87 0-1.5 1.05-1.5 3zM34.81 37.77a2.52 2.52 0 0 0 1.31.4c.72 0 1.06-.36 1.06-.81s-.29-.73-1-1c-1-.35-1.44-.89-1.44-1.55a1.68 1.68 0 0 1 1.88-1.59 2.71 2.71 0 0 1 1.34.32l-.25.72a2.05 2.05 0 0 0-1.11-.32c-.58 0-.91.32-.91.74s.33.65 1 .92c.95.36 1.43.83 1.43 1.63 0 1-.74 1.63-2 1.63a3.11 3.11 0 0 1-1.52-.37zM40.59 31.78v1.56H42v.77h-1.41v2.94c0 .67.19 1.06.75 1.06a2.78 2.78 0 0 0 .57-.07v.74a2.62 2.62 0 0 1-.88.14A1.35 1.35 0 0 1 40 38.5a2 2 0 0 1-.39-1.42v-3h-.84v-.76h.84v-1.3zM43.12 35v-1.7h.86v1.07a1.64 1.64 0 0 1 1.51-1.19 1.33 1.33 0 0 1 .28 0v.94a1.24 1.24 0 0 0-.33 0 1.38 1.38 0 0 0-1.32 1.27 2.4 2.4 0 0 0 0 .46v2.9h-1zM51.61 36a2.66 2.66 0 0 1-2.71 2.89 2.59 2.59 0 0 1-2.61-2.8A2.66 2.66 0 0 1 49 33.22 2.57 2.57 0 0 1 51.61 36zm-4.32 0c0 1.2.69 2.1 1.66 2.1s1.66-.89 1.66-2.1c0-.92-.46-2.09-1.63-2.09s-1.69 1.09-1.69 2.16zM52.86 34.81v-1.47h.87l.06.9a2 2 0 0 1 1.8-1c.76 0 1.93.45 1.93 2.32v3.24h-1v-3.15c0-.88-.33-1.61-1.26-1.61a1.46 1.46 0 0 0-1.4 1.47v3.27h-1zM63.79 33.34V38a3.12 3.12 0 0 1-.79 2.48 2.9 2.9 0 0 1-2 .66 3.49 3.49 0 0 1-1.81-.46l.25-.75a3.1 3.1 0 0 0 1.6.43c1 0 1.75-.53 1.75-1.9v-.61a2 2 0 0 1-1.73.91 2.43 2.43 0 0 1-2.32-2.65 2.61 2.61 0 0 1 2.45-2.89 1.82 1.82 0 0 1 1.7.94v-.82zm-1 2.15a1.17 1.17 0 0 0-.06-.45 1.43 1.43 0 0 0-1.38-1c-.95 0-1.63.8-1.63 2.06 0 1.07.54 2 1.61 2a1.45 1.45 0 0 0 1.37-1 1.89 1.89 0 0 0 .08-.53zM68.88 31.82a.62.62 0 0 1-1.23 0 .6.6 0 0 1 .59-.61.58.58 0 0 1 .61.56zm-1.11 7v-5.48h1v5.44zM70.41 34.81a13.4 13.4 0 0 0 0-1.47h.88l.06.9a2 2 0 0 1 1.8-1c.75 0 1.92.45 1.92 2.32v3.24h-1v-3.15c0-.88-.33-1.61-1.26-1.61a1.44 1.44 0 0 0-1.39 1.47v3.27h-1zM85.55 34.92c0 2.61-1.58 4-3.52 4s-3.41-1.55-3.41-3.85 1.5-4 3.52-4 3.41 1.6 3.41 3.85zm-5.88.08c0 1.63.88 3.07 2.42 3.07s2.43-1.43 2.43-3.15c0-1.5-.79-3.08-2.42-3.08s-2.43 1.54-2.43 3.16zM86.78 35v-1.7h.86v1.07a1.64 1.64 0 0 1 1.51-1.19 1.33 1.33 0 0 1 .28 0v.94a1.17 1.17 0 0 0-.32 0 1.39 1.39 0 0 0-1.33 1.27 3.59 3.59 0 0 0 0 .46v2.9h-1zM90.9 36.24a1.74 1.74 0 0 0 1.87 1.89 3.51 3.51 0 0 0 1.5-.28l.17.71a4.47 4.47 0 0 1-1.81.33A2.53 2.53 0 0 1 90 36.14a2.65 2.65 0 0 1 2.55-2.94 2.31 2.31 0 0 1 2.25 2.57v.46zm2.9-.7a1.42 1.42 0 0 0-1.37-1.61 1.64 1.64 0 0 0-1.52 1.61zM100.67 33.34V38a3.12 3.12 0 0 1-.78 2.48 2.9 2.9 0 0 1-2 .66 3.49 3.49 0 0 1-1.81-.46l.25-.75a3.07 3.07 0 0 0 1.6.43c1 0 1.75-.53 1.75-1.9v-.61a2 2 0 0 1-1.73.91 2.43 2.43 0 0 1-2.32-2.65A2.61 2.61 0 0 1 98 33.22a1.81 1.81 0 0 1 1.7.94v-.82zm-1 2.15a1.4 1.4 0 0 0-.06-.45 1.43 1.43 0 0 0-1.38-1c-.94 0-1.63.8-1.63 2.06 0 1.07.54 2 1.61 2a1.46 1.46 0 0 0 1.37-1 1.89 1.89 0 0 0 .08-.53zM107.2 36a2.66 2.66 0 0 1-2.71 2.89 2.59 2.59 0 0 1-2.62-2.8 2.66 2.66 0 0 1 2.7-2.89 2.58 2.58 0 0 1 2.63 2.8zm-4.32 0c0 1.2.68 2.1 1.65 2.1s1.65-.89 1.65-2.12c0-.92-.46-2.09-1.63-2.09s-1.67 1.08-1.67 2.11zM108.44 34.81v-1.47h.88v.9a2 2 0 0 1 1.8-1c.76 0 1.93.45 1.93 2.32v3.24h-1v-3.15c0-.88-.33-1.61-1.26-1.61a1.44 1.44 0 0 0-1.39 1.47v3.27h-1zM120.08 38.78l-.08-.68a2 2 0 0 1-1.66.81 1.55 1.55 0 0 1-1.66-1.44.53.53 0 0 1 0-.13c0-1.3 1.17-2 3.27-2v-.11a1.13 1.13 0 0 0-1.28-1.23 2.74 2.74 0 0 0-1.42.4l-.25-.7a3.41 3.41 0 0 1 1.79-.48c1.66 0 2.06 1.13 2.06 2.22v2a8.17 8.17 0 0 0 .1 1.31zm-.14-2.78c-1.08 0-2.3.17-2.3 1.22a.87.87 0 0 0 .79 1h.14a1.36 1.36 0 0 0 1.3-.91 1 1 0 0 0 .06-.33zM122.49 34.81v-1.47h.87l.06.9a2 2 0 0 1 1.8-1c.75 0 1.92.45 1.92 2.32v3.24h-1v-3.15c0-.88-.32-1.61-1.25-1.61a1.45 1.45 0 0 0-1.4 1.47v3.27h-1zM133.44 30.8v7.98h-.89v-1a2 2 0 0 1-1.85 1.07 2.48 2.48 0 0 1-2.33-2.76c0-1.82 1.12-2.94 2.44-2.94a1.8 1.8 0 0 1 1.63.83V30.8zm-1 4.76a2 2 0 0 0-.05-.42A1.47 1.47 0 0 0 131 34c-1 0-1.63.91-1.63 2.11s.54 2 1.61 2a1.49 1.49 0 0 0 1.45-1.18 1.53 1.53 0 0 0 0-.43zM137.36 37.59a3.51 3.51 0 0 0 1.75.5c1 0 1.59-.53 1.59-1.31s-.4-1.11-1.43-1.51c-1.23-.43-2-1.08-2-2.14a2.18 2.18 0 0 1 2.45-2.06 3.47 3.47 0 0 1 1.67.38l-.27.8a3 3 0 0 0-1.44-.36c-1 0-1.43.62-1.43 1.14 0 .71.46 1.06 1.51 1.46 1.3.49 2 1.11 2 2.23s-.86 2.19-2.65 2.19a4 4 0 0 1-1.93-.49zM144.28 38.78l-1.91-7.57h1l.9 3.83c.23 1 .43 1.89.56 2.61.12-.75.36-1.65.61-2.63l1-3.82h1l.92 3.84c.21.9.42 1.8.53 2.61.16-.82.37-1.67.61-2.61l1-3.82h1l-2.15 7.58h-1l-1-3.95a23 23 0 0 1-.49-2.47 23.29 23.29 0 0 1-.58 2.47l-1.08 3.93zM155.77 38.78l-1.92-7.57h1l.9 3.83c.23 1 .43 1.89.56 2.61.12-.75.36-1.65.61-2.63l1-3.82h1l.92 3.84a26.29 26.29 0 0 1 .53 2.61c.16-.82.37-1.67.61-2.61l1-3.82h1L161 38.8h-1l-1-3.95a23 23 0 0 1-.5-2.47c-.15.83-.35 1.66-.58 2.47l-1.12 3.95zM166.66 38.78l-.08-.68a2 2 0 0 1-1.65.81 1.55 1.55 0 0 1-1.66-1.43.66.66 0 0 1 0-.14c0-1.3 1.17-2 3.27-2v-.11a1.13 1.13 0 0 0-1.28-1.23 2.74 2.74 0 0 0-1.42.4l-.22-.65a3.41 3.41 0 0 1 1.79-.48c1.66 0 2.07 1.13 2.07 2.22v2a8.16 8.16 0 0 0 .08 1.31zm-.15-2.78c-1.08 0-2.3.17-2.3 1.22a.88.88 0 0 0 .8 1h.13a1.37 1.37 0 0 0 1.31-.91 1.26 1.26 0 0 0 .05-.33zM168.93 37.77a2.55 2.55 0 0 0 1.31.4c.72 0 1.06-.36 1.06-.81s-.28-.73-1-1c-1-.35-1.44-.89-1.44-1.55a1.68 1.68 0 0 1 1.88-1.59 2.71 2.71 0 0 1 1.34.32l-.25.72a2.08 2.08 0 0 0-1.11-.32c-.59 0-.91.32-.91.74s.32.65 1 .92c1 .36 1.43.83 1.43 1.63 0 1-.74 1.63-2 1.63a3.12 3.12 0 0 1-1.53-.37zM173.52 30.8h1v3.4a1.84 1.84 0 0 1 .71-.7 2 2 0 0 1 1-.28c.73 0 1.9.45 1.9 2.33v3.23h-1v-3.12c0-.88-.32-1.63-1.26-1.63a1.41 1.41 0 0 0-1.32 1 1.08 1.08 0 0 0-.07.47v3.28h-1zM180.86 31.82a.61.61 0 0 1-1.22 0 .59.59 0 0 1 .57-.62.58.58 0 0 1 .62.54.11.11 0 0 1 .03.08zm-1.1 7v-5.48h1v5.44zM182.4 34.81a13.4 13.4 0 0 0-.05-1.47h.87l.06.9a2 2 0 0 1 1.8-1c.75 0 1.92.45 1.92 2.32v3.24h-1v-3.15c0-.88-.33-1.61-1.26-1.61a1.45 1.45 0 0 0-1.4 1.47v3.27h-1zM193.32 33.34V38a3.12 3.12 0 0 1-.78 2.48 2.89 2.89 0 0 1-2 .66 3.52 3.52 0 0 1-1.82-.46l.25-.75a3.1 3.1 0 0 0 1.6.43c1 0 1.75-.53 1.75-1.9v-.61a2 2 0 0 1-1.73.91 2.43 2.43 0 0 1-2.32-2.65 2.62 2.62 0 0 1 2.45-2.89 1.8 1.8 0 0 1 1.7.94l.05-.82zm-1 2.15a1.38 1.38 0 0 0-.05-.45 1.45 1.45 0 0 0-1.39-1c-.94 0-1.63.8-1.63 2.06 0 1.07.54 2 1.61 2a1.45 1.45 0 0 0 1.37-1 1.89 1.89 0 0 0 .08-.53zM196.12 31.78v1.56h1.43v.77h-1.42v2.94c0 .67.19 1.06.74 1.06a2.79 2.79 0 0 0 .58-.07v.74a2.6 2.6 0 0 1-.87.14 1.39 1.39 0 0 1-1.07-.42 2 2 0 0 1-.38-1.42v-3h-.85v-.76h.85v-1.3zM203.51 36a2.66 2.66 0 0 1-2.71 2.89 2.59 2.59 0 0 1-2.62-2.8 2.66 2.66 0 0 1 2.7-2.89 2.58 2.58 0 0 1 2.63 2.8zm-4.33 0c0 1.19.69 2.09 1.65 2.09s1.66-.89 1.66-2.12c0-.92-.46-2.08-1.63-2.08s-1.68 1.11-1.68 2.18zM204.75 34.81v-1.47h.88v.9a2 2 0 0 1 1.8-1c.76 0 1.93.45 1.93 2.32v3.24h-1v-3.15c0-.88-.33-1.61-1.26-1.61a1.46 1.46 0 0 0-1.4 1.47v3.27h-1z"/></svg>